<svg width="1440" height="86" viewBox="0 0 1440 86" fill="none" xmlns="http://www.w3.org/2000/svg">
<rect width="1440" height="86" fill="white"/>
<path d="M155.126 51.8473H155.059C155.089 51.8473 155.109 51.8721 155.139 51.8746H155.159L155.126 51.8498V51.8473ZM155.139 51.8746C154.827 51.8771 154.043 51.9983 153.215 51.9983C150.599 51.9983 149.694 51.1065 149.694 49.9423V42.1859H155.025C155.327 42.1859 155.562 41.9877 155.562 41.7152V37.5038C155.562 37.2809 155.293 37.0827 155.025 37.0827H149.694V31.8556C149.694 31.6575 149.527 31.5336 149.225 31.5336H141.983C141.681 31.5336 141.514 31.6575 141.514 31.8556V37.2313C141.514 37.2313 137.859 37.9002 137.624 37.925C137.356 37.9745 137.189 38.1479 137.189 38.3461V41.7152C137.189 41.9877 137.457 42.1859 137.759 42.1859H141.48V50.3112C141.48 56.3558 147.18 56.9752 151.069 56.9752C152.846 56.9752 154.991 56.5542 155.327 56.4302C155.528 56.3806 155.629 56.2073 155.629 56.034V52.3179C155.633 52.2125 155.586 52.1094 155.496 52.0275C155.407 51.9456 155.28 51.8904 155.139 51.8721V51.8746ZM234.585 46.422C234.585 41.9381 232.137 41.3436 229.556 41.5418C227.544 41.6409 225.935 42.3841 225.935 42.3841V51.1042C225.935 51.1042 227.578 51.9465 230.025 51.9958C233.478 52.0702 234.585 51.1535 234.585 46.422ZM242.732 46.0257C242.732 54.5227 239.01 56.9504 232.506 56.9504C227.008 56.9504 224.057 54.8944 224.057 54.8944C224.057 54.8944 223.923 56.034 223.755 56.1825C223.655 56.331 223.487 56.3806 223.286 56.3806H218.324C217.989 56.3806 217.687 56.1825 217.687 55.9596L217.754 28.437C217.754 28.214 218.023 28.0159 218.324 28.0159H225.466C225.767 28.0159 226.035 28.214 226.035 28.437V37.7763C226.035 37.7763 228.785 36.4634 232.808 36.4634L232.774 36.4138C236.798 36.4138 242.732 37.5286 242.732 46.0257ZM213.496 37.0827H206.456C206.087 37.0827 205.886 37.2809 205.886 37.5534V51.0298C205.886 51.0298 204.042 51.9958 201.527 51.9958C199.013 51.9958 198.275 51.1535 198.275 49.2956V37.5286C198.275 37.3056 198.007 37.1075 197.705 37.1075H190.53C190.229 37.1075 189.96 37.3056 189.96 37.5286V50.1875C189.96 55.6375 194.084 57 199.75 57C204.411 57 208.199 55.0925 208.199 55.0925C208.199 55.0925 208.367 56.0585 208.467 56.2073C208.534 56.331 208.769 56.4302 209.004 56.4302H213.496C213.865 56.4302 214.066 56.2321 214.066 56.0092L214.133 37.5038C214.133 37.2809 213.865 37.0827 213.496 37.0827ZM134.037 37.0579H126.896C126.594 37.0579 126.326 37.2809 126.326 37.5534V55.7367C126.326 56.2321 126.762 56.4054 127.332 56.4054H133.769C134.439 56.4054 134.607 56.1825 134.607 55.7367V37.4791C134.607 37.2561 134.339 37.0579 134.037 37.0579ZM130.517 28.6847C127.935 28.6847 125.89 30.1959 125.89 32.1034C125.89 34.0109 127.935 35.522 130.517 35.522C133.031 35.522 135.076 34.0109 135.076 32.1034C135.076 30.1959 133.031 28.6847 130.517 28.6847ZM185.803 28.0654H178.729C178.427 28.0654 178.159 28.2636 178.159 28.4865V38.6186H167.061V28.4865C167.061 28.2636 166.793 28.0654 166.491 28.0654H159.35C159.048 28.0654 158.78 28.2636 158.78 28.4865V56.0092C158.78 56.2321 159.082 56.4302 159.35 56.4302H166.491C166.793 56.4302 167.061 56.2321 167.061 56.0092V44.242H178.159L178.092 56.0092C178.092 56.2321 178.36 56.4302 178.662 56.4302H185.803C186.105 56.4302 186.373 56.2321 186.373 56.0092V28.4865C186.373 28.2636 186.105 28.0654 185.803 28.0654ZM122.537 40.2536V54.4731C122.537 54.5723 122.504 54.7456 122.336 54.7952C122.336 54.7952 118.145 57 111.239 57C102.89 57 93 55.0677 93 42.3345C93 29.6013 101.65 26.9754 110.099 27.0002C117.408 27.0002 120.358 28.214 120.827 28.437C120.962 28.5609 121.029 28.6599 121.029 28.7838L119.62 33.1934C119.62 33.4163 119.319 33.6888 118.95 33.6145C117.743 33.342 115.933 32.797 111.675 32.797C106.746 32.797 101.449 33.8375 101.449 42.0373C101.449 50.2371 106.478 51.2031 110.099 51.2031C113.183 51.2031 114.29 50.9306 114.29 50.9306V45.2329H109.361C108.992 45.2329 108.724 45.0347 108.724 44.8118V40.2536C108.724 40.0306 108.992 39.8325 109.361 39.8325H121.9C122.269 39.8325 122.537 40.0306 122.537 40.2536Z" fill="#0F0F0F"/>
<g style="mix-blend-mode:luminosity" clip-path="url(#clip0_339_497)">
<path fill-rule="evenodd" clip-rule="evenodd" d="M451.549 49.5633C446.294 57.4606 437.97 55.1691 435.471 53.3749C434.407 54.0147 432.541 55.417 430.054 55.255C424.756 54.9104 422.859 48.2007 422.859 48.2007C422.897 48.2275 421.281 48.6949 420.407 48.6866C420.396 50.6542 418.477 55.3546 413.298 55.2945C407.486 55.2273 406.304 47.5531 406.304 47.5531C406.304 47.5531 405.726 48.2649 403.527 48.9739C403.637 47.4622 403.557 55.0644 396.591 55.1761C391.084 55.2646 389.597 47.4348 389.597 47.4348C389.597 47.4348 388.642 48.3143 386.79 48.6194C386.908 47.0831 386.717 55.2019 379.75 55.1761C375.042 55.1588 373.433 50.353 373.558 49.686C373.718 48.8359 371.967 55.2957 367.394 55.195C365.507 55.1459 364.1 53.9349 363.217 52.3204C362.035 53.5189 360.319 55.195 358.394 55.195C354.939 55.195 353.416 52.6337 353.674 45.3179C353.696 44.4502 353.625 44.109 352.652 43.9792C352.068 43.8928 351.47 43.7292 350.837 43.643C350.634 44.243 348.913 54.9998 342.996 55.204C341.011 55.2725 339.926 53.7485 339.034 52.6174C337.668 54.2194 335.864 55.255 333.295 55.255C328.942 55.255 325.977 52.1365 325.977 48.2895C325.977 44.4425 328.942 41.3242 333.295 41.3242C334.064 41.3242 334.28 41.422 334.983 41.6038C333.538 29.9365 336.952 28.113 339.939 28.113C342.807 28.113 347.706 34.012 340.812 48.9751C342.343 53.4381 345.642 53.1857 347.228 43.9982C347.551 42.1307 346.688 39.6105 348.03 39.2588C350.483 38.616 350.743 40.5446 351.894 40.866C353.11 41.2056 353.82 41.1724 354.988 41.3885C356.983 41.7339 357.761 42.6838 357.518 44.7996C357.226 47.4767 356.716 51.3732 358.273 51.8481C359.396 52.1931 361.446 50.1293 361.805 49.0001C362.165 47.871 362.24 47.4845 362.272 46.6563C362.321 44.8861 362.382 43.5886 362.722 42.2499C362.868 41.7319 363.034 41.3888 363.695 41.3654C364.24 41.3531 365.235 41.2079 365.673 41.51C366.256 41.8988 366.183 42.2933 366.116 43.3316C365.437 58.1353 370.663 50.7452 372.222 44.8279C371.667 38.1369 372.048 28.2356 376.779 28.0695C379.239 27.9831 380.327 29.7301 380.446 31.034C380.785 34.7168 378.889 40.8172 376.396 44.9197C374.971 53.2907 382.626 54.9459 383.85 48.2642C381.847 47.4202 379.683 44.0044 381.444 42.3397C382.432 41.4055 386.546 42.7476 386.613 45.6748C388.631 45.1965 388.901 44.1867 388.929 44.354C388.374 37.663 388.889 28.2356 393.62 28.0696C396.08 27.9832 397.167 29.7301 397.287 31.0341C397.625 34.7168 395.73 40.8173 393.237 44.9199C391.812 53.2907 399.467 54.946 400.691 48.2643C399.208 48.0107 396.078 44.3775 397.884 42.3398C398.849 41.2509 402.948 43.5154 403.406 45.7717C405.345 45.2855 405.608 44.3078 405.636 44.4724C405.081 37.7816 405.596 28.3542 410.327 28.1882C412.787 28.1018 413.874 29.8487 413.994 31.1527C414.332 34.8354 412.437 40.936 409.944 45.0385C408.519 53.4095 416.174 55.0644 417.398 48.3827C415.36 48.082 412.464 44.2458 414.795 42.2833C415.726 41.4992 419.284 43.5346 420.117 45.8568C421.274 45.8173 421.995 45.4636 422.149 45.4279C420.302 37.573 421.677 28.1484 426.766 28.0697C429.517 28.0272 432.207 29.3877 431.026 36.8606C429.899 43.9906 425.849 46.9827 425.859 47.0285C426.094 47.8827 428.173 55.0312 433.406 51.2594C433.135 50.7157 432.864 50.1603 432.712 49.4874C431.845 45.5677 433.549 41.1404 438.18 40.4249C440.833 40.0149 443.333 41.1598 443.728 43.741C444.378 47.9645 440.075 51.0233 438.439 51.6868C437.706 51.3178 445.082 55.5107 449.46 47.108C449.714 46.6282 450.02 46.6689 450.416 46.9162C450.696 47.0908 452.291 48.4299 451.549 49.5633ZM336.461 47.2517C336.238 46.6615 335.781 45.361 335.619 44.7976C334.729 44.1114 334.094 44 332.951 44C330.412 44 328.917 46.0809 328.917 48.3247C328.917 50.5684 330.545 52.6496 333.085 52.6496C335.285 52.6496 336.96 51.3235 337.471 49.4462C337.114 48.7143 336.759 48.0417 336.461 47.2517ZM339.877 31.2015C338.093 31.2015 337.487 34.974 337.605 38.1924C337.709 41.0378 338.606 43.5428 339.071 44.6653C339.189 44.8059 339.167 44.7144 339.273 44.8636C342.371 38.8472 341.086 31.2015 339.877 31.2015ZM377.033 31.32C374.727 31.0855 374.742 39.6001 375.028 41.51C376.226 39.8118 378.307 31.7772 377.033 31.32ZM393.874 31.32C391.568 31.0855 391.583 39.6001 391.869 41.51C393.067 39.8118 395.148 31.7772 393.874 31.32ZM410.581 31.4384C408.275 31.204 408.29 39.7186 408.576 41.6287C409.774 39.9303 411.855 31.8956 410.581 31.4384ZM427.021 30.8215C423.428 31.461 424.264 42.0789 424.81 43.9412C429.043 38.789 429.13 30.628 427.021 30.8215ZM440.487 44.0903C440.305 43.4133 439.391 43.0515 438.761 43.1407C436.956 43.359 435.207 45.3505 435.884 48.3824C436.035 49.0576 436.412 49.6792 436.406 49.6585C440.444 47.2577 440.787 45.3659 440.487 44.0903ZM364.403 39.0218C363.887 39.0219 363.383 38.8864 362.954 38.6326C362.525 38.3787 362.191 38.0179 361.994 37.5957C361.796 37.1735 361.745 36.7089 361.845 36.2607C361.946 35.8124 362.194 35.4007 362.559 35.0775C362.923 34.7543 363.388 34.5342 363.894 34.4451C364.399 34.3559 364.924 34.4016 365.4 34.5765C365.876 34.7514 366.283 35.0476 366.57 35.4276C366.856 35.8076 367.009 36.2544 367.009 36.7114C367.009 37.0148 366.942 37.3152 366.811 37.5955C366.68 37.8758 366.488 38.1305 366.246 38.345C366.004 38.5596 365.716 38.7298 365.4 38.8459C365.084 38.962 364.745 39.0218 364.403 39.0218Z" fill="#0D0C22"/>
</g>
<g style="mix-blend-mode:luminosity" clip-path="url(#clip1_339_497)">
<path d="M550.21 32.1064V41.1942H540.793V32.1064H536.322V53.7997H540.793V45.0071H550.21V53.7997H554.681V32.1064H550.21Z" fill="#33475B"/>
<path d="M568.989 46.7869C568.989 47.6563 568.599 48.4901 567.906 49.1049C567.212 49.7196 566.271 50.065 565.29 50.065C564.309 50.065 563.369 49.7196 562.675 49.1049C561.981 48.4901 561.592 47.6563 561.592 46.7869V37.4953H557.351V46.7869C557.351 48.6513 558.187 50.4394 559.674 51.7578C561.162 53.0761 563.179 53.8168 565.283 53.8168C567.386 53.8168 569.404 53.0761 570.891 51.7578C572.379 50.4394 573.214 48.6513 573.214 46.7869V37.4953H568.989V46.7869Z" fill="#33475B"/>
<path d="M600.41 38.4529C600.41 36.5484 601.832 35.9446 603.389 35.9446C604.645 35.9446 606.303 36.7911 607.387 37.8181L610.165 34.9176C608.778 33.2558 605.965 32.1065 603.663 32.1065C599.063 32.1065 595.736 34.4944 595.736 38.4529C595.736 45.7973 605.865 43.4676 605.865 47.5775C605.865 48.8453 604.476 49.9655 602.886 49.9655C600.378 49.9655 599.565 48.8783 598.413 47.729L595.331 50.5693C597.302 52.7145 599.734 53.8036 602.647 53.8036C607.017 53.8036 610.533 51.3866 610.533 47.6086C610.533 39.4547 600.404 41.9882 600.404 38.4529" fill="#33475B"/>
<path d="M663.072 50.3341C660.566 50.3341 659.854 49.3731 659.854 47.9015V41.3881H663.748V38.0877H659.854V33.7331L655.554 35.4435V48.7111C655.554 52.1047 658.196 53.815 661.819 53.815C662.387 53.8242 662.955 53.7839 663.514 53.6947L664.563 50.272C664.09 50.3011 663.547 50.3302 663.072 50.3302" fill="#33475B"/>
<path d="M585.132 37.6049C583.031 37.6049 581.566 38.1446 580.148 39.3774V32.2369H575.901V45.4715C575.901 50.4259 579.942 53.8195 584.483 53.8195C589.521 53.8195 593.953 50.3658 593.953 45.7141C593.953 41.1208 589.874 37.6068 585.132 37.6068V37.6049ZM585.105 50.0318C584.152 50.0318 583.221 49.7813 582.428 49.312C581.636 48.8427 581.018 48.1757 580.653 47.3952C580.288 46.6148 580.193 45.756 580.379 44.9275C580.565 44.099 581.024 43.3379 581.698 42.7406C582.372 42.1433 583.231 41.7365 584.165 41.5717C585.1 41.4069 586.069 41.4915 586.95 41.8148C587.83 42.138 588.583 42.6855 589.112 43.3878C589.642 44.0902 589.925 44.916 589.925 45.7607C589.925 46.8935 589.417 47.9799 588.513 48.7809C587.609 49.5818 586.384 50.0318 585.105 50.0318Z" fill="#33475B"/>
<path d="M631.25 45.5153C631.25 40.8559 626.827 37.4099 621.781 37.4099C617.24 37.4099 613.198 40.8035 613.198 45.758V59.0003H617.446V51.8501C618.861 53.0809 620.328 53.6226 622.427 53.6226C627.169 53.6226 631.248 50.1106 631.248 45.5153H631.25ZM627.228 45.4687C627.228 46.3134 626.946 47.1392 626.416 47.8416C625.887 48.544 625.134 49.0914 624.253 49.4147C623.373 49.7379 622.404 49.8225 621.469 49.6577C620.534 49.4929 619.676 49.0861 619.002 48.4888C618.328 47.8915 617.869 47.1304 617.683 46.3019C617.497 45.4734 617.592 44.6146 617.957 43.8342C618.322 43.0538 618.939 42.3867 619.732 41.9174C620.524 41.4481 621.456 41.1976 622.409 41.1976C623.687 41.1976 624.913 41.6476 625.817 42.4486C626.721 43.2495 627.228 44.3359 627.228 45.4687Z" fill="#33475B"/>
<path d="M644.929 37.3496V33.6066C645.487 33.3756 645.96 33.0088 646.292 32.5489C646.624 32.089 646.801 31.555 646.804 31.009V30.9216C646.802 30.1587 646.459 29.4276 645.85 28.8881C645.241 28.3486 644.416 28.0446 643.556 28.0425H643.457C642.596 28.0446 641.771 28.3486 641.163 28.8881C640.554 29.4276 640.211 30.1587 640.209 30.9216V31.009C640.211 31.555 640.389 32.089 640.721 32.5489C641.053 33.0088 641.525 33.3756 642.084 33.6066V37.3496C640.479 37.5671 638.968 38.1565 637.703 39.0581L626.106 31.0614C626.189 30.7976 626.233 30.5256 626.238 30.2519C626.238 29.6095 626.024 28.9813 625.622 28.4467C625.22 27.9122 624.649 27.4953 623.979 27.2487C623.31 27.0022 622.573 26.9371 621.862 27.0617C621.151 27.1862 620.498 27.4949 619.985 27.9486C619.472 28.4023 619.122 28.9806 618.979 29.6105C618.837 30.2404 618.909 30.8936 619.185 31.4873C619.462 32.0811 619.931 32.5889 620.533 32.9464C621.135 33.3039 621.844 33.4952 622.569 33.496C623.205 33.4939 623.83 33.3432 624.38 33.0591L635.782 40.9257C634.755 42.2989 634.219 43.9146 634.244 45.5619C634.27 47.2091 634.855 48.8113 635.924 50.1591L632.454 53.2343C632.176 53.1557 631.886 53.1138 631.593 53.11C630.998 53.11 630.415 53.2666 629.92 53.5599C629.425 53.8532 629.039 54.2701 628.811 54.7579C628.583 55.2457 628.523 55.7824 628.639 56.3002C628.755 56.818 629.042 57.2937 629.464 57.667C629.885 58.0403 630.421 58.2946 631.006 58.3976C631.59 58.5006 632.196 58.4477 632.746 58.2457C633.296 58.0436 633.767 57.7015 634.098 57.2625C634.429 56.8235 634.605 56.3074 634.605 55.7794C634.601 55.5204 634.554 55.2633 634.465 55.0165L637.898 51.9743C639.018 52.7328 640.319 53.2544 641.702 53.4993C643.084 53.7441 644.512 53.7058 645.875 53.3871C647.239 53.0685 648.502 52.478 649.568 51.6607C650.635 50.8434 651.477 49.8209 652.029 48.6713C652.582 47.5217 652.831 46.2754 652.757 45.0275C652.684 43.7796 652.289 42.5631 651.605 41.4709C650.92 40.3786 649.962 39.4395 648.805 38.7253C647.648 38.0111 646.322 37.5405 644.929 37.3496V37.3496ZM643.507 49.6621C642.568 49.6621 641.65 49.4152 640.869 48.9527C640.088 48.4902 639.479 47.8329 639.12 47.0638C638.76 46.2947 638.666 45.4484 638.85 44.632C639.033 43.8155 639.485 43.0655 640.149 42.4769C640.813 41.8883 641.66 41.4874 642.581 41.325C643.502 41.1626 644.457 41.2459 645.325 41.5645C646.192 41.8831 646.934 42.4225 647.456 43.1147C647.978 43.8069 648.256 44.6206 648.256 45.4531C648.256 46.5694 647.756 47.6399 646.865 48.4293C645.975 49.2186 644.767 49.6621 643.507 49.6621" fill="#FF7A59"/>
</g>
<g style="mix-blend-mode:luminosity" clip-path="url(#clip2_339_497)">
<path d="M799.625 53.7744V39.2194H799.917L811.871 53.7744H815.633V32.4001H811.453V46.9185H811.161L799.207 32.4001H795.445V53.7744H799.625ZM827.461 54.1044C832.979 54.1044 836.364 50.9514 836.364 45.672C836.364 40.4293 832.979 37.2396 827.461 37.2396C821.986 37.2396 818.559 40.4293 818.559 45.672C818.6 50.9514 821.944 54.1044 827.461 54.1044ZM827.461 51.0247C824.536 51.0247 822.864 49.0816 822.864 45.672C822.864 42.2991 824.536 40.3193 827.461 40.3193C830.387 40.3193 832.059 42.2991 832.059 45.672C832.059 49.0816 830.387 51.0247 827.461 51.0247ZM840.168 33.61V37.6796H837.242V40.6126H840.168V49.4483C840.168 52.6012 841.84 53.8478 846.103 53.8478C846.897 53.8478 847.691 53.7744 848.318 53.6645V50.8048C847.817 50.8414 847.482 50.8781 846.897 50.8781C845.142 50.8781 844.347 50.1815 844.347 48.5684V40.6126H848.318V37.6796H844.347V33.61H840.168ZM850.826 53.7744H855.006V37.5696H850.826V53.7744ZM852.916 34.8932C854.295 34.8932 855.424 33.9033 855.424 32.6934C855.424 31.4469 854.295 30.457 852.916 30.457C851.537 30.457 850.408 31.4469 850.408 32.6934C850.408 33.9033 851.537 34.8932 852.916 34.8932ZM866.458 54.1044C871.975 54.1044 875.361 50.9514 875.361 45.672C875.361 40.4293 871.975 37.2396 866.458 37.2396C860.983 37.2396 857.555 40.4293 857.555 45.672C857.555 50.9514 860.899 54.1044 866.458 54.1044ZM866.458 51.0247C863.532 51.0247 861.86 49.0816 861.86 45.672C861.86 42.2991 863.532 40.3193 866.458 40.3193C869.342 40.3193 871.056 42.2991 871.056 45.672C871.014 49.0816 869.342 51.0247 866.458 51.0247ZM877.827 53.7744H882.007V44.3522C882.007 41.9691 883.595 40.4659 886.061 40.4659C888.61 40.4659 889.781 41.7124 889.781 44.1688V53.7744H893.96V43.2889C893.96 39.4027 891.703 37.2396 887.607 37.2396C884.849 37.2396 883.01 38.3395 882.132 40.1726H881.839V37.5696H877.785C877.827 37.5696 877.827 53.7744 877.827 53.7744Z" fill="black"/>
<path fill-rule="evenodd" clip-rule="evenodd" d="M755.369 31.0321C756.585 31.9019 757.025 31.8332 759.303 31.6959L780.76 30.5514C781.226 30.5514 780.838 30.1394 780.682 30.0936L777.111 27.8276C776.438 27.3698 775.506 26.8204 773.772 26.9578L753.013 28.3083C752.263 28.3769 752.107 28.7203 752.418 28.972L755.369 31.0321ZM756.663 35.4498V55.4094C756.663 56.4852 757.258 56.8743 758.63 56.8056L782.21 55.5925C783.581 55.5238 783.737 54.7913 783.737 53.9215V34.0993C783.737 33.2295 783.348 32.7488 782.52 32.8175L757.879 34.0993C756.973 34.168 756.663 34.58 756.663 35.4498ZM779.932 36.5256C780.087 37.1207 779.932 37.7387 779.259 37.8074L778.12 38.0134V52.7542C777.136 53.212 776.231 53.4866 775.454 53.4866C774.238 53.4866 773.927 53.1433 773.021 52.1362L765.593 41.813V51.7928L767.948 52.2506C767.948 52.2506 767.948 53.4638 766.058 53.4638L760.83 53.7384C760.675 53.4638 760.83 52.8 761.348 52.6626L762.72 52.3193V39.135L760.83 38.9976C760.675 38.4025 761.063 37.5327 762.124 37.464L767.741 37.1207L775.48 47.5583V38.3338L773.513 38.1278C773.358 37.3954 773.979 36.846 774.729 36.7773L779.932 36.5256ZM751.279 26.4771L772.892 25.0808C775.532 24.8748 776.231 25.0122 777.887 26.088L784.772 30.3683C785.911 31.1008 786.299 31.3068 786.299 32.1079V55.6154C786.299 57.0803 785.704 57.9501 783.581 58.0874L758.501 59.4379C756.896 59.5066 756.145 59.3006 755.317 58.3621L750.218 52.5253C749.312 51.4495 748.924 50.6484 748.924 49.7099V28.8118C748.924 27.5987 749.545 26.6144 751.279 26.4771Z" fill="black"/>
</g>
<path d="M999.279 36.538H1005.94L1011.37 42.0192L1016.8 36.538H1023.46V50.6991H1017.19V42.5665L1011.37 48.1092H1011.24L1005.45 42.6068V50.6991H999.279V36.538ZM1035.36 36.4362H1041.43L1051.12 50.6972H1044.36L1042.7 48.1686H1033.93L1032.3 50.6972H1025.68L1035.36 36.4362ZM1040.89 45.114L1038.35 41.088L1035.78 45.114H1040.89ZM1051.29 48.5949L1054.8 45.9859C1057.04 47.0995 1059.54 47.6849 1062.17 47.6849C1063.86 47.6849 1064.77 47.3201 1064.77 46.7134V46.6731C1064.77 46.0856 1064.03 45.7631 1060.94 45.3177C1056.1 44.6304 1052.36 43.7798 1052.36 40.8674V40.8271C1052.36 38.1968 1055.71 36.2962 1061.17 36.2962C1065.04 36.2962 1068.06 36.9431 1070.53 38.1777L1067.37 40.9501C1065.3 40.0401 1063.02 39.5543 1061 39.5543C1059.47 39.5543 1058.73 39.9595 1058.73 40.4643V40.5046C1058.73 41.1516 1059.51 41.4359 1062.66 41.8813C1067.89 42.5898 1071.14 43.6419 1071.14 46.2913V46.3316C1071.14 49.2249 1067.47 50.9431 1061.95 50.9431C1057.92 50.941 1054.08 50.1519 1051.29 48.5949ZM1073.42 43.6589V43.6186C1073.42 39.5522 1078.69 36.2559 1085.71 36.2559C1092.73 36.2559 1097.93 39.5119 1097.93 43.5783V43.6186C1097.93 47.6849 1092.66 50.9813 1085.64 50.9813C1078.62 50.9813 1073.42 47.7253 1073.42 43.6589ZM1091.49 43.6589V43.6186C1091.49 41.5759 1089.12 39.7962 1085.64 39.7962C1082.2 39.7962 1079.89 41.5356 1079.89 43.5783V43.6186C1079.89 45.6613 1082.26 47.441 1085.71 47.441C1089.18 47.441 1091.49 45.7016 1091.49 43.6589ZM1101.21 36.538H1107.1L1116.46 44.0237V36.538H1122.7V50.6991H1117.17L1107.45 42.9313V50.6991H1101.21V36.538Z" fill="#1F1F1F"/>
<path d="M1142.36 61H978.451V26H1142.36V61ZM983.992 57.553H1136.82V29.4491H983.992V57.553Z" fill="#1F1F1F"/>
<g style="mix-blend-mode:luminosity" clip-path="url(#clip3_339_497)">
<path fill-rule="evenodd" clip-rule="evenodd" d="M1325.36 39.5972C1325.78 40.2429 1325.92 40.9774 1325.97 41.8032L1326.03 42.9039V50.6007L1326.09 51.7025C1326.21 53.502 1327.71 54.8325 1329.75 54.9457L1330.99 55V42.9039L1331.05 41.8032C1331.1 40.9867 1331.24 40.2382 1331.67 39.588C1332.1 38.921 1332.73 38.3677 1333.49 37.9835C1334.24 37.5993 1335.1 37.3978 1335.97 37.3992C1336.84 37.4006 1337.69 37.6049 1338.44 37.9915C1339.2 38.3781 1339.82 38.9335 1340.26 39.6018C1340.68 40.2475 1340.81 40.9959 1340.86 41.8032L1340.92 42.9005V50.6007L1340.98 51.7025C1341.11 53.5112 1342.6 54.8418 1344.65 54.9457L1345.89 55V41.8032C1345.89 39.4697 1344.84 37.2317 1342.98 35.5813C1341.12 33.9309 1338.59 33.0032 1335.96 33.0023C1334.55 33.001 1333.16 33.2662 1331.87 33.7803C1330.59 34.2944 1329.44 35.0454 1328.51 35.9833C1327.58 35.0458 1326.43 34.2949 1325.15 33.7807C1323.87 33.2665 1322.47 33.0007 1321.06 33.0012C1319 33.0012 1317.09 33.5555 1315.5 34.513C1314.54 33.5567 1312.37 33.0012 1311.13 33.0012V55L1312.37 54.9457C1314.45 54.8244 1315.95 53.5297 1316.03 51.7025L1316.1 50.6007V42.9039L1316.16 41.8032C1316.21 40.9728 1316.34 40.2429 1316.77 39.5926C1317.2 38.9261 1317.83 38.3728 1318.59 37.9882C1319.34 37.6035 1320.19 37.4009 1321.06 37.4005C1321.93 37.4006 1322.79 37.6037 1323.54 37.9893C1324.3 38.3748 1324.92 38.9294 1325.36 39.5972V39.5972ZM1240.39 54.9469L1241.63 55H1260.25L1260.19 53.9028C1260.02 52.0941 1258.57 50.7728 1256.53 50.655L1255.28 50.6007H1244.12L1259.01 37.3993L1258.94 36.3032C1258.85 34.4761 1257.34 33.1559 1255.28 33.0554L1254.04 33.0058L1235.43 33.0012L1235.49 34.1019C1235.65 35.8932 1237.12 37.2422 1239.15 37.3462L1240.39 37.4005H1251.56L1236.67 50.6018L1236.73 51.7025C1236.85 53.5159 1238.33 54.8291 1240.39 54.9457V54.9469ZM1306.26 36.2212C1307.41 37.2426 1308.33 38.4552 1308.95 39.7898C1309.57 41.1244 1309.9 42.5548 1309.9 43.9994C1309.9 45.444 1309.57 46.8744 1308.95 48.209C1308.33 49.5436 1307.41 50.7562 1306.26 51.7776C1303.93 53.8399 1300.77 54.9983 1297.48 54.9983C1294.19 54.9983 1291.03 53.8399 1288.7 51.7776C1283.86 47.4823 1283.86 40.5166 1288.7 36.2212C1289.86 35.2002 1291.22 34.3902 1292.73 33.8375C1294.23 33.2848 1295.85 33.0002 1297.47 33C1299.11 32.999 1300.72 33.2831 1302.23 33.836C1303.74 34.3889 1305.11 35.1999 1306.26 36.2224V36.2212ZM1302.75 39.3362C1304.14 40.5744 1304.93 42.2531 1304.93 44.0035C1304.93 45.7538 1304.14 47.4326 1302.75 48.6707C1301.35 49.908 1299.46 50.6029 1297.48 50.6029C1295.51 50.6029 1293.61 49.908 1292.22 48.6707C1290.82 47.4326 1290.04 45.7538 1290.04 44.0035C1290.04 42.2531 1290.82 40.5744 1292.22 39.3362C1293.61 38.099 1295.51 37.404 1297.48 37.404C1299.46 37.404 1301.35 38.099 1302.75 39.3362V39.3362ZM1271.43 33C1273.06 33.0004 1274.67 33.2851 1276.17 33.8381C1277.68 34.391 1279.05 35.2012 1280.2 36.2224C1285.04 40.5166 1285.04 47.4834 1280.2 51.7776C1277.87 53.8399 1274.71 54.9983 1271.42 54.9983C1268.13 54.9983 1264.97 53.8399 1262.64 51.7776C1257.79 47.4823 1257.79 40.5166 1262.64 36.2212C1263.79 35.2002 1265.16 34.3902 1266.66 33.8375C1268.17 33.2848 1269.78 33.0002 1271.41 33H1271.43ZM1276.68 39.3339C1278.08 40.5721 1278.87 42.2511 1278.87 44.0017C1278.87 45.7524 1278.08 47.4314 1276.68 48.6696C1275.29 49.9068 1273.39 50.6018 1271.42 50.6018C1269.44 50.6018 1267.55 49.9068 1266.15 48.6696C1264.76 47.4314 1263.97 45.7527 1263.97 44.0023C1263.97 42.252 1264.76 40.5732 1266.15 39.335C1267.55 38.0978 1269.44 37.4028 1271.42 37.4028C1273.39 37.4028 1275.29 38.0978 1276.68 39.335V39.3339Z" fill="#2D8CFF"/>
</g>
<defs>
<clipPath id="clip0_339_497">
<rect width="126.369" height="48" fill="white" transform="translate(325.977 19)"/>
</clipPath>
<clipPath id="clip1_339_497">
<rect width="128.626" height="48" fill="white" transform="translate(536.322 19)"/>
</clipPath>
<clipPath id="clip2_339_497">
<rect width="145.551" height="48" fill="white" transform="translate(748.924 19)"/>
</clipPath>
<clipPath id="clip3_339_497">
<rect width="110.573" height="48" fill="white" transform="translate(1235.43 19)"/>
</clipPath>
</defs>
</svg>
