<svg width="1417" height="37" viewBox="0 0 1417 37" fill="none" xmlns="http://www.w3.org/2000/svg">
<path d="M1402 7L1404.41 16.1796L1412.61 11.3934L1407.82 19.5891L1417 22L1407.82 24.4109L1412.61 32.6066L1404.41 27.8204L1402 37L1399.59 27.8204L1391.39 32.6066L1396.18 24.4109L1387 22L1396.18 19.5891L1391.39 11.3934L1399.59 16.1796L1402 7Z" fill="#FCFDA2"/>
<path d="M15 0L17.4109 9.17956L25.6066 4.3934L20.8204 12.5891L30 15L20.8204 17.4109L25.6066 25.6066L17.4109 20.8204L15 30L12.5891 20.8204L4.3934 25.6066L9.17956 17.4109L0 15L9.17956 12.5891L4.3934 4.3934L12.5891 9.17956L15 0Z" fill="#FCFDA2"/>
</svg>
